# xmcd
#
# Track frame offsets:
#	150
#	7748
#	42219
#	69239
#	79250
#	98533
#	122834
#	152184
#	180998
#	212360
#	233887
#	258334
#	289901
#	314970
#
# Disc length: 4349 seconds
#
# Revision: 412277249
# Processed by: cddbd v1.5.2PL0 Copyright (c) Steve Scherf et al.
# Submitted via: EZCDAudioConverter 8.1.0.1
#
DISCID=b410fb0e
DTITLE=The Avett Brothers - Live, Vol. 4
DYEAR=2015
DGENRE=Country
TTITLE0=Intro - Feeling Good
TTITLE1=Satan Pulls The Strings
TTITLE2=Laundry Room
TTITLE3=Another Is Waiting
TTITLE4=Shame
TTITLE5=Kick Drum Heart
TTITLE6=Rejects In The Attic
TTITLE7=Ten Thousand Words
TTITLE8=Talk On Indolence
TTITLE9=Auld Lang Syne
TTITLE10=The Boys Are Back In Town
TTITLE11=Slight Figure Of Speech
TTITLE12=I And Love And You
TTITLE13=Happy Trails
EXTD=
EXTT0=
EXTT1=
EXTT2=
EXTT3=
EXTT4=
EXTT5=
EXTT6=
EXTT7=
EXTT8=
EXTT9=
EXTT10=
EXTT11=
EXTT12=
EXTT13=
PLAYORDER=
